<svg width="21" height="34" viewBox="0 0 21 34" fill="none" xmlns="http://www.w3.org/2000/svg">
<path d="M19.6611 13.0938H13.3544V11.4312C13.3544 9.86689 13.6773 8.92159 14.285 8.34911C14.9005 7.76927 15.9221 7.4625 17.5897 7.4625C18.6504 7.4625 19.4817 7.48772 19.9495 7.53497L20.4998 7.59055V7.0375V1.49375V1.10776L20.1263 1.01004C19.1421 0.75246 16.8175 0.5 15.4728 0.5C11.9265 0.5 9.2297 1.30274 7.42467 3.07181C5.61755 4.84295 4.79869 7.4897 4.79869 10.9625V13.0938H0.999756H0.499756V13.5938V19.7062V20.2062H0.999756H4.79869V33V33.5H5.29869H12.8544H13.3544V33V20.2062H18.4886H18.9018L18.9797 19.8004L20.1521 13.6879L20.2661 13.0938H19.6611Z" fill="#202129" stroke="#D7E2FF"/>
</svg>
