<svg width="37" height="23" viewBox="0 0 37 23" fill="none" xmlns="http://www.w3.org/2000/svg">
<mask id="path-1-outside-1_47_123" maskUnits="userSpaceOnUse" x="-0.000244141" y="0" width="37" height="23" fill="black">
<rect fill="white" x="-0.000244141" width="37" height="23"/>
<path fill-rule="evenodd" clip-rule="evenodd" d="M34.8707 2.44531C35.1279 1.63016 34.8707 1.03758 33.7325 1.03758H29.9479C28.9933 1.03758 28.5525 1.55645 28.2952 2.11145C28.2952 2.11145 26.3484 6.85207 23.6297 9.92553C22.7481 10.8144 22.3441 11.1107 21.8665 11.1107C21.6092 11.1107 21.2782 10.8144 21.2782 9.99996V2.40701C21.2782 1.44443 20.9848 1 20.1762 1H14.2244C13.6361 1 13.269 1.44443 13.269 1.88887C13.269 2.81459 14.6283 3.03717 14.775 5.62934V11.2617C14.775 12.4837 14.5582 12.707 14.0769 12.707C12.7913 12.707 9.66874 7.92955 7.79562 2.48578C7.4314 1.40758 7.0614 1 6.10605 1H2.28536C1.18331 1 0.999756 1.51814 0.999756 2.07387C0.999756 3.07402 2.28536 8.11022 6.98769 14.776C10.1103 19.3287 14.5553 21.7756 18.5596 21.7756C20.9848 21.7756 21.2782 21.2199 21.2782 20.2942V16.85C21.2782 15.7393 21.4986 15.5543 22.2704 15.5543C22.8211 15.5543 23.8133 15.8499 26.0542 18.0352C28.6255 20.6273 29.0663 21.8125 30.4993 21.8125H34.2831C35.3852 21.8125 35.8997 21.2568 35.6056 20.1829C35.2753 19.109 34.0259 17.5539 32.4093 15.7024C31.5276 14.6662 30.2052 13.5179 29.8012 12.9621C29.2506 12.2214 29.3973 11.9251 29.8012 11.2588C29.7644 11.2588 34.3937 4.66676 34.8707 2.44242"/>
</mask>
<path fill-rule="evenodd" clip-rule="evenodd" d="M34.8707 2.44531C35.1279 1.63016 34.8707 1.03758 33.7325 1.03758H29.9479C28.9933 1.03758 28.5525 1.55645 28.2952 2.11145C28.2952 2.11145 26.3484 6.85207 23.6297 9.92553C22.7481 10.8144 22.3441 11.1107 21.8665 11.1107C21.6092 11.1107 21.2782 10.8144 21.2782 9.99996V2.40701C21.2782 1.44443 20.9848 1 20.1762 1H14.2244C13.6361 1 13.269 1.44443 13.269 1.88887C13.269 2.81459 14.6283 3.03717 14.775 5.62934V11.2617C14.775 12.4837 14.5582 12.707 14.0769 12.707C12.7913 12.707 9.66874 7.92955 7.79562 2.48578C7.4314 1.40758 7.0614 1 6.10605 1H2.28536C1.18331 1 0.999756 1.51814 0.999756 2.07387C0.999756 3.07402 2.28536 8.11022 6.98769 14.776C10.1103 19.3287 14.5553 21.7756 18.5596 21.7756C20.9848 21.7756 21.2782 21.2199 21.2782 20.2942V16.85C21.2782 15.7393 21.4986 15.5543 22.2704 15.5543C22.8211 15.5543 23.8133 15.8499 26.0542 18.0352C28.6255 20.6273 29.0663 21.8125 30.4993 21.8125H34.2831C35.3852 21.8125 35.8997 21.2568 35.6056 20.1829C35.2753 19.109 34.0259 17.5539 32.4093 15.7024C31.5276 14.6662 30.2052 13.5179 29.8012 12.9621C29.2506 12.2214 29.3973 11.9251 29.8012 11.2588C29.7644 11.2588 34.3937 4.66676 34.8707 2.44242" fill="#202129"/>
<path d="M28.2952 2.11145L27.3879 1.69089L27.3786 1.71103L27.3702 1.73156L28.2952 2.11145ZM23.6297 9.92553L24.3397 10.6297L24.3598 10.6095L24.3788 10.5881L23.6297 9.92553ZM14.775 5.62934H15.775V5.60106L15.7734 5.57283L14.775 5.62934ZM7.79562 2.48578L6.84819 2.80582L6.85003 2.81114L7.79562 2.48578ZM6.98769 14.776L7.81243 14.2103L7.80482 14.1996L6.98769 14.776ZM26.0542 18.0352L26.7642 17.3309L26.7584 17.325L26.7524 17.3192L26.0542 18.0352ZM35.6056 20.1829L36.5701 19.9188L36.566 19.9038L36.5614 19.889L35.6056 20.1829ZM32.4093 15.7024L31.6476 16.3505L31.656 16.3602L32.4093 15.7024ZM29.8012 12.9621L30.6101 12.3741L30.6038 12.3655L29.8012 12.9621ZM29.8012 11.2588L30.6563 11.7773L31.577 10.2588H29.8012V11.2588ZM35.8243 2.74628C35.9873 2.22973 36.0852 1.49455 35.645 0.863613C35.1934 0.216244 34.4304 0.0375779 33.7325 0.0375779V2.03758C33.9371 2.03758 34.0383 2.06514 34.0722 2.07798C34.0867 2.08347 34.0812 2.08337 34.0649 2.07123C34.0475 2.05837 34.0253 2.03737 34.0047 2.00791C33.9602 1.94417 33.9614 1.89732 33.962 1.91508C33.9628 1.93992 33.9584 2.01319 33.917 2.14434L35.8243 2.74628ZM33.7325 0.0375779H29.9479V2.03758H33.7325V0.0375779ZM29.9479 0.0375779C29.2753 0.0375779 28.7081 0.225487 28.2546 0.570526C27.8167 0.903637 27.5554 1.32966 27.3879 1.69089L29.2025 2.532C29.2923 2.33823 29.38 2.22732 29.4655 2.16225C29.5354 2.1091 29.6659 2.03758 29.9479 2.03758V0.0375779ZM28.2952 2.11145C27.3702 1.73156 27.3702 1.73146 27.3702 1.73138C27.3702 1.73137 27.3703 1.73131 27.3703 1.7313C27.3703 1.73129 27.3703 1.73134 27.3702 1.73147C27.3701 1.73173 27.3699 1.73227 27.3695 1.73309C27.3689 1.73474 27.3677 1.73751 27.3661 1.74138C27.3629 1.74913 27.3578 1.76129 27.3509 1.77766C27.3371 1.8104 27.3161 1.85998 27.2881 1.92485C27.2321 2.0546 27.1483 2.24534 27.039 2.48463C26.8201 2.9636 26.5001 3.63498 26.0972 4.39994C25.2851 5.94184 24.1623 7.8141 22.8807 9.26298L24.3788 10.5881C25.8158 8.96349 27.0258 6.92872 27.8667 5.33194C28.2904 4.52756 28.6269 3.82169 28.8581 3.31575C28.9738 3.06259 29.0633 2.85895 29.1244 2.71745C29.1549 2.64668 29.1784 2.59141 29.1944 2.55321C29.2025 2.53411 29.2087 2.51927 29.213 2.50889C29.2151 2.5037 29.2168 2.49963 29.218 2.49669C29.2186 2.49523 29.2191 2.49404 29.2195 2.49315C29.2197 2.4927 29.2198 2.49233 29.22 2.49202C29.22 2.49187 29.2201 2.4917 29.2201 2.49162C29.2202 2.49147 29.2202 2.49133 28.2952 2.11145ZM22.9197 9.22131C22.4785 9.66617 22.2163 9.90011 22.0323 10.0259C21.9488 10.083 21.9043 10.1013 21.8886 10.1068C21.8786 10.1103 21.8759 10.1107 21.8665 10.1107V12.1107C22.3558 12.1107 22.7695 11.9445 23.1609 11.677C23.5188 11.4324 23.8993 11.0737 24.3397 10.6297L22.9197 9.22131ZM21.8665 10.1107C22.1427 10.1107 22.2833 10.2683 22.313 10.3138C22.3379 10.3518 22.2782 10.2848 22.2782 9.99996H20.2782C20.2782 10.5295 20.3841 11.0179 20.6387 11.4077C20.8982 11.8049 21.333 12.1107 21.8665 12.1107V10.1107ZM22.2782 9.99996V2.40701H20.2782V9.99996H22.2782ZM22.2782 2.40701C22.2782 1.86982 22.206 1.24081 21.829 0.740646C21.3992 0.170447 20.7647 0 20.1762 0V2C20.2916 2 20.3269 2.01651 20.3169 2.01247C20.2953 2.00378 20.2582 1.97941 20.2319 1.94443C20.2122 1.91832 20.2265 1.92298 20.2445 2.00222C20.2629 2.08321 20.2782 2.21207 20.2782 2.40701H22.2782ZM20.1762 0H14.2244V2H20.1762V0ZM14.2244 0C13.0762 0 12.269 0.899861 12.269 1.88887H14.269C14.269 1.93878 14.2506 1.96735 14.2361 1.98199C14.227 1.99116 14.2174 1.99702 14.2102 2.00002C14.2023 2.0033 14.2049 2 14.2244 2V0ZM12.269 1.88887C12.269 2.39741 12.4668 2.78121 12.6557 3.06009C12.7447 3.19149 12.8437 3.31654 12.923 3.41661C13.0086 3.52467 13.0824 3.61745 13.1566 3.7201C13.414 4.076 13.7151 4.59869 13.7766 5.68584L15.7734 5.57283C15.6883 4.06781 15.2364 3.18313 14.7774 2.54827C14.6725 2.40323 14.5696 2.27436 14.4907 2.1748C14.4055 2.06725 14.3524 1.99872 14.3117 1.93857C14.2411 1.83436 14.269 1.84318 14.269 1.88887H12.269ZM13.775 5.62934V11.2617H15.775V5.62934H13.775ZM13.775 11.2617C13.775 11.5431 13.7622 11.7335 13.7439 11.8601C13.7247 11.993 13.7064 12.0042 13.7296 11.9619C13.744 11.9356 13.7719 11.8934 13.8188 11.8486C13.8668 11.8028 13.9211 11.7673 13.975 11.7428C14.0734 11.698 14.133 11.707 14.0769 11.707V13.707C14.2615 13.707 14.5287 13.6881 14.8031 13.5633C15.1055 13.4258 15.3321 13.1992 15.4833 12.9234C15.7345 12.4653 15.775 11.8624 15.775 11.2617H13.775ZM14.0769 11.707C14.2051 11.707 14.2148 11.7559 14.0691 11.6589C13.9424 11.5744 13.7657 11.4243 13.5439 11.1893C13.1025 10.7214 12.5724 10.0134 12.0038 9.10661C10.8705 7.29906 9.65398 4.81318 8.7412 2.16042L6.85003 2.81114C7.81037 5.60216 9.09168 8.2269 10.3094 10.169C10.9163 11.1371 11.525 11.9637 12.0891 12.5617C12.3702 12.8596 12.663 13.1253 12.9604 13.3234C13.2389 13.5089 13.6274 13.707 14.0769 13.707V11.707ZM8.74302 2.16575C8.55267 1.60225 8.30445 1.02081 7.84928 0.602376C7.34331 0.13724 6.73132 0 6.10605 0V2C6.43612 2 6.4868 2.06655 6.49573 2.07475C6.55546 2.12966 6.67434 2.29111 6.84821 2.80582L8.74302 2.16575ZM6.10605 0H2.28536V2H6.10605V0ZM2.28536 0C1.60247 0 0.948285 0.158512 0.494397 0.650354C0.0505521 1.13131 -0.000244141 1.71917 -0.000244141 2.07387H1.99976C1.99976 1.98421 2.0079 1.94403 2.01068 1.9338C2.01147 1.93089 2.00148 1.96631 1.96418 2.00672C1.92584 2.04827 1.90014 2.05018 1.93511 2.03855C1.97778 2.02436 2.08331 2 2.28536 2V0ZM-0.000244141 2.07387C-0.000244141 2.46316 0.11067 3.07206 0.308821 3.80434C0.514848 4.56573 0.836487 5.53685 1.30511 6.67971C2.24281 8.96653 3.77606 11.9581 6.17055 15.3524L7.80482 14.1996C5.49699 10.9281 4.03627 8.0687 3.15559 5.92093C2.71502 4.8465 2.42136 3.95443 2.23939 3.28194C2.04954 2.58034 1.99976 2.18466 1.99976 2.07387H-0.000244141ZM6.16302 15.3416C9.42927 20.1038 14.1565 22.7756 18.5596 22.7756V20.7756C14.9541 20.7756 10.7913 18.5537 7.81235 14.2104L6.16302 15.3416ZM18.5596 22.7756C19.7748 22.7756 20.7364 22.6515 21.3886 22.2104C22.1948 21.6651 22.2782 20.8438 22.2782 20.2942H20.2782C20.2782 20.4877 20.2602 20.559 20.2532 20.5785C20.2521 20.5817 20.2552 20.5726 20.2649 20.56C20.2747 20.5473 20.2797 20.5459 20.2681 20.5537C20.2369 20.5748 20.1217 20.6375 19.8298 20.6903C19.5419 20.7423 19.1338 20.7756 18.5596 20.7756V22.7756ZM22.2782 20.2942V16.85H20.2782V20.2942H22.2782ZM22.2782 16.85C22.2782 16.5955 22.2917 16.4476 22.3074 16.3643C22.323 16.2814 22.3281 16.3344 22.2586 16.4192C22.2221 16.4637 22.1779 16.5013 22.1319 16.5289C22.0884 16.555 22.0563 16.5644 22.0492 16.5663C22.0435 16.5679 22.056 16.564 22.0963 16.5603C22.1363 16.5567 22.1921 16.5543 22.2704 16.5543V14.5543C21.8991 14.5543 21.1882 14.5697 20.7112 15.152C20.4902 15.422 20.3919 15.7295 20.342 15.9937C20.2923 16.2574 20.2782 16.5492 20.2782 16.85H22.2782ZM22.2704 16.5543C22.3938 16.5543 23.1331 16.5833 25.3561 18.7511L26.7524 17.3192C24.4935 15.1164 23.2484 14.5543 22.2704 14.5543V16.5543ZM25.3443 18.7394C25.9698 19.3701 26.4666 19.9159 26.8865 20.3855C27.2968 20.8443 27.6634 21.2648 27.991 21.5975C28.3221 21.9338 28.675 22.2462 29.0896 22.4683C29.5269 22.7025 29.9868 22.8125 30.4993 22.8125V20.8125C30.2953 20.8125 30.1628 20.7743 30.034 20.7053C29.8825 20.6242 29.6958 20.4784 29.4162 20.1943C29.133 19.9067 28.8178 19.5449 28.3775 19.0524C27.9468 18.5708 27.4243 17.9964 26.7642 17.3309L25.3443 18.7394ZM30.4993 22.8125H34.2831V20.8125H30.4993V22.8125ZM34.2831 22.8125C34.9631 22.8125 35.7279 22.6452 36.2334 22.0439C36.7602 21.4172 36.7615 20.6176 36.5701 19.9188L34.6411 20.4471C34.6906 20.6278 34.69 20.7305 34.685 20.7728C34.6811 20.8054 34.6776 20.7866 34.7025 20.7569C34.7245 20.7307 34.7299 20.7428 34.6684 20.7641C34.6021 20.7871 34.4797 20.8125 34.2831 20.8125V22.8125ZM36.5614 19.889C36.3439 19.1818 35.8621 18.4112 35.295 17.6412C34.7134 16.8517 33.9741 15.9742 33.1626 15.0447L31.656 16.3602C32.4611 17.2821 33.1548 18.108 33.6847 18.8273C34.229 19.5663 34.537 20.1102 34.6498 20.4769L36.5614 19.889ZM33.1709 15.0545C32.6972 14.4977 32.1142 13.9208 31.6294 13.4412C31.1034 12.9208 30.7512 12.5682 30.6101 12.3741L28.9923 13.5501C29.2552 13.9118 29.7662 14.4112 30.2228 14.863C30.7207 15.3555 31.2397 15.8709 31.6476 16.3504L33.1709 15.0545ZM30.6038 12.3655C30.3754 12.0584 30.4488 12.0436 30.4406 12.1557C30.4378 12.1928 30.4282 12.1922 30.4599 12.124C30.4954 12.0478 30.5523 11.9489 30.6563 11.7773L28.9461 10.7404C28.7757 11.0214 28.4851 11.4747 28.4459 12.0094C28.401 12.6214 28.6764 13.1252 28.9987 13.5587L30.6038 12.3655ZM29.8012 10.2588C30.0167 10.2823 30.4366 10.4867 30.6103 10.6713C30.7076 10.8366 30.7929 11.1319 30.8009 11.2481C30.8029 11.4322 30.7509 11.571 30.7459 11.5855C30.7201 11.66 30.6905 11.7146 30.6882 11.7191C30.6793 11.7359 30.6722 11.7481 30.6696 11.7526C30.6664 11.7581 30.6642 11.7618 30.6636 11.7627C30.6629 11.7638 30.668 11.7557 30.6832 11.7324C30.7117 11.689 30.7567 11.6216 30.819 11.5288C30.9414 11.3466 31.1232 11.0773 31.3421 10.7497C31.7809 10.0933 32.3766 9.19134 32.9896 8.21745C33.6012 7.24568 34.237 6.19146 34.7529 5.23196C35.2513 4.30514 35.696 3.3629 35.8484 2.65208L33.8929 2.23276C33.8068 2.63411 33.494 3.35001 32.9914 4.2848C32.5063 5.1869 31.8976 6.19777 31.297 7.15205C30.6976 8.10423 30.1131 8.98935 29.6793 9.6384C29.4619 9.9636 29.2843 10.2267 29.1588 10.4137C29.0971 10.5054 29.046 10.5819 29.0105 10.6361C28.9937 10.6617 28.9748 10.6909 28.9588 10.717C28.953 10.7263 28.9356 10.7547 28.9176 10.789C28.9135 10.7967 28.8829 10.8537 28.8565 10.9298C28.8512 10.945 28.7991 11.0845 28.8011 11.269C28.8091 11.3853 28.8945 11.6808 28.9918 11.8462C29.1656 12.0309 29.5856 12.2353 29.8012 12.2588V10.2588Z" fill="#D7E2FF" mask="url(#path-1-outside-1_47_123)"/>
</svg>
